<svg width="165" height="35" viewBox="0 0 165 35" fill="none" xmlns="http://www.w3.org/2000/svg">
<path d="M35.0463 0.645996H0.214311C0.0960349 0.645996 0 0.742452 0 0.861444V34.3653C0 34.4843 0.0960349 34.5807 0.214311 34.5807H35.0463C35.1646 34.5807 35.26 34.4843 35.26 34.3653V0.861444C35.26 0.742452 35.1646 0.645996 35.0463 0.645996Z" fill="#545BE8"/>
<path d="M24.6097 13.8502V20.9226C24.6485 21.6873 24.5111 22.4506 24.209 23.1498C23.9069 23.8491 23.4486 24.4644 22.8718 24.9454C21.7224 25.9067 20.0938 26.3873 17.986 26.3873C15.8921 26.3873 14.2658 25.9115 13.1002 24.9454C12.5263 24.4626 12.071 23.8465 11.7714 23.1474C11.4718 22.4483 11.3364 21.686 11.3762 20.9226V19.214L7.01392 12.3074V20.8072C6.94077 22.494 7.39078 24.1609 8.29841 25.5652C9.20605 26.9696 10.5239 28.038 12.0602 28.615C15.9046 29.9827 20.0814 29.9827 23.9257 28.615C25.4519 28.0268 26.7672 26.9701 27.6948 25.587C28.5831 24.1652 29.0332 22.4987 28.986 20.8072V20.7423L24.6097 13.8502Z" fill="white"/>
<path d="M29 17.4405V5.646H24.6097V10.5412L29 17.4405Z" fill="white"/>
<path d="M11.3902 15.9049V5.646H7V8.99835L11.3902 15.9049Z" fill="white"/>
<path d="M57.6143 29.8491C57.6143 29.6831 57.5882 29.5366 57.5361 29.4097C57.4873 29.2795 57.3994 29.1623 57.2725 29.0581C57.1488 28.9539 56.9762 28.8547 56.7549 28.7603C56.5368 28.6659 56.2601 28.5698 55.9248 28.4722C55.5732 28.368 55.2559 28.2524 54.9727 28.1255C54.6895 27.9953 54.4469 27.8472 54.2451 27.6812C54.0433 27.5151 53.8887 27.3247 53.7812 27.1099C53.6738 26.895 53.6201 26.6493 53.6201 26.3726C53.6201 26.0959 53.6771 25.8403 53.791 25.606C53.9049 25.3716 54.0677 25.1681 54.2793 24.9956C54.4941 24.8198 54.7497 24.6831 55.0459 24.5854C55.3421 24.4878 55.6725 24.439 56.0371 24.439C56.571 24.439 57.0234 24.5415 57.3945 24.7466C57.7689 24.9484 58.0537 25.2137 58.249 25.5425C58.4443 25.868 58.542 26.2163 58.542 26.5874H57.6045C57.6045 26.3205 57.5475 26.0845 57.4336 25.8794C57.3197 25.6711 57.1471 25.5083 56.916 25.3911C56.6849 25.2707 56.3919 25.2104 56.0371 25.2104C55.7018 25.2104 55.4251 25.2609 55.207 25.3618C54.9889 25.4627 54.8262 25.5994 54.7188 25.772C54.6146 25.9445 54.5625 26.1414 54.5625 26.3628C54.5625 26.5125 54.5934 26.6493 54.6553 26.7729C54.7204 26.8934 54.8197 27.0057 54.9531 27.1099C55.0898 27.214 55.2624 27.3101 55.4707 27.3979C55.6823 27.4858 55.9346 27.5705 56.2275 27.6519C56.6312 27.7658 56.9795 27.8927 57.2725 28.0327C57.5654 28.1727 57.8063 28.3306 57.9951 28.5063C58.1872 28.6789 58.3288 28.8758 58.4199 29.0972C58.5143 29.3153 58.5615 29.5627 58.5615 29.8394C58.5615 30.1291 58.5029 30.3911 58.3857 30.6255C58.2686 30.8599 58.1009 31.0601 57.8828 31.2261C57.6647 31.3921 57.4027 31.5207 57.0967 31.6118C56.7939 31.6997 56.4554 31.7437 56.0811 31.7437C55.7523 31.7437 55.4284 31.6981 55.1094 31.6069C54.7936 31.5158 54.5055 31.3791 54.2451 31.1968C53.988 31.0145 53.7812 30.7899 53.625 30.5229C53.472 30.2528 53.3955 29.9403 53.3955 29.5854H54.333C54.333 29.8296 54.3802 30.0396 54.4746 30.2153C54.569 30.3879 54.6976 30.5311 54.8604 30.645C55.0264 30.759 55.2135 30.8436 55.4219 30.8989C55.6335 30.951 55.8532 30.9771 56.0811 30.9771C56.4098 30.9771 56.6882 30.9315 56.916 30.8403C57.1439 30.7492 57.3164 30.619 57.4336 30.4497C57.554 30.2804 57.6143 30.0802 57.6143 29.8491ZM60.5293 27.3784V33.6772H59.6211V26.3628H60.4512L60.5293 27.3784ZM64.0889 28.9604V29.063C64.0889 29.4471 64.0433 29.8035 63.9521 30.1323C63.861 30.4578 63.7275 30.741 63.5518 30.9819C63.3792 31.2228 63.166 31.41 62.9121 31.5435C62.6582 31.6769 62.3669 31.7437 62.0381 31.7437C61.7028 31.7437 61.4066 31.6883 61.1494 31.5776C60.8923 31.467 60.6742 31.3058 60.4951 31.0942C60.3161 30.8826 60.1729 30.6287 60.0654 30.3325C59.9613 30.0363 59.8896 29.7026 59.8506 29.3315V28.7847C59.8896 28.394 59.9629 28.0441 60.0703 27.7349C60.1777 27.4256 60.3193 27.1619 60.4951 26.9438C60.6742 26.7225 60.8906 26.5549 61.1445 26.4409C61.3984 26.3237 61.6914 26.2651 62.0234 26.2651C62.3555 26.2651 62.6501 26.3302 62.9072 26.4604C63.1644 26.5874 63.3809 26.7697 63.5566 27.0073C63.7324 27.245 63.8643 27.5298 63.9521 27.8618C64.0433 28.1906 64.0889 28.5568 64.0889 28.9604ZM63.1807 29.063V28.9604C63.1807 28.6968 63.153 28.4494 63.0977 28.2183C63.0423 27.9839 62.9561 27.7788 62.8389 27.603C62.7249 27.424 62.5785 27.284 62.3994 27.1831C62.2204 27.0789 62.0072 27.0269 61.7598 27.0269C61.5319 27.0269 61.3333 27.0659 61.1641 27.144C60.998 27.2222 60.8564 27.328 60.7393 27.4614C60.6221 27.5916 60.526 27.7414 60.4512 27.9106C60.3796 28.0767 60.3258 28.2492 60.29 28.4282V29.6929C60.3551 29.9207 60.4463 30.1356 60.5635 30.3374C60.6807 30.536 60.8369 30.6971 61.0322 30.8208C61.2275 30.9412 61.4733 31.0015 61.7695 31.0015C62.0137 31.0015 62.2236 30.951 62.3994 30.8501C62.5785 30.7459 62.7249 30.6043 62.8389 30.4253C62.9561 30.2463 63.0423 30.0412 63.0977 29.8101C63.153 29.5757 63.1807 29.3267 63.1807 29.063ZM67.4336 31.7437C67.0658 31.7437 66.7321 31.6818 66.4326 31.5581C66.1364 31.4312 65.8809 31.2537 65.666 31.0259C65.4544 30.798 65.2917 30.5278 65.1777 30.2153C65.0638 29.9028 65.0068 29.561 65.0068 29.1899V28.9849C65.0068 28.5552 65.0703 28.1727 65.1973 27.8374C65.3242 27.4989 65.4967 27.2124 65.7148 26.978C65.9329 26.7437 66.1803 26.5662 66.457 26.4458C66.7337 26.3254 67.0202 26.2651 67.3164 26.2651C67.694 26.2651 68.0195 26.3302 68.293 26.4604C68.5697 26.5907 68.7959 26.7729 68.9717 27.0073C69.1475 27.2384 69.2777 27.5119 69.3623 27.8276C69.4469 28.1401 69.4893 28.4819 69.4893 28.853V29.2583H65.5439V28.521H68.5859V28.4526C68.5729 28.2183 68.5241 27.9904 68.4395 27.769C68.3581 27.5477 68.2279 27.3654 68.0488 27.2222C67.8698 27.0789 67.6257 27.0073 67.3164 27.0073C67.1113 27.0073 66.9225 27.0513 66.75 27.1392C66.5775 27.2238 66.4294 27.3507 66.3057 27.52C66.182 27.6893 66.0859 27.896 66.0176 28.1401C65.9492 28.3843 65.915 28.6659 65.915 28.9849V29.1899C65.915 29.4406 65.9492 29.6766 66.0176 29.8979C66.0892 30.116 66.1917 30.3081 66.3252 30.4741C66.4619 30.6401 66.6263 30.7703 66.8184 30.8647C67.0137 30.9591 67.235 31.0063 67.4824 31.0063C67.8014 31.0063 68.0716 30.9412 68.293 30.811C68.5143 30.6808 68.708 30.5067 68.874 30.2886L69.4209 30.7231C69.307 30.8957 69.1621 31.0601 68.9863 31.2163C68.8105 31.3726 68.5941 31.4995 68.3369 31.5972C68.083 31.6948 67.7819 31.7437 67.4336 31.7437ZM73.6592 30.7427V28.0229C73.6592 27.8146 73.6169 27.634 73.5322 27.481C73.4508 27.3247 73.3271 27.2043 73.1611 27.1196C72.9951 27.035 72.79 26.9927 72.5459 26.9927C72.318 26.9927 72.1178 27.0317 71.9453 27.1099C71.776 27.188 71.6426 27.2905 71.5449 27.4175C71.4505 27.5444 71.4033 27.6812 71.4033 27.8276H70.5C70.5 27.6388 70.5488 27.4517 70.6465 27.2661C70.7441 27.0806 70.8841 26.9129 71.0664 26.7632C71.252 26.6102 71.4733 26.4897 71.7305 26.4019C71.9909 26.3107 72.2806 26.2651 72.5996 26.2651C72.9837 26.2651 73.3223 26.3302 73.6152 26.4604C73.9115 26.5907 74.1426 26.7876 74.3086 27.0513C74.4779 27.3117 74.5625 27.6388 74.5625 28.0327V30.4937C74.5625 30.6694 74.5771 30.8566 74.6064 31.0552C74.639 31.2537 74.6862 31.4246 74.748 31.5679V31.646H73.8057C73.7601 31.5418 73.7243 31.4035 73.6982 31.231C73.6722 31.0552 73.6592 30.8924 73.6592 30.7427ZM73.8154 28.4429L73.8252 29.0776H72.9121C72.6549 29.0776 72.4255 29.0988 72.2236 29.1411C72.0218 29.1802 71.8525 29.2404 71.7158 29.3218C71.5791 29.4032 71.4749 29.5057 71.4033 29.6294C71.3317 29.7498 71.2959 29.8914 71.2959 30.0542C71.2959 30.2202 71.3333 30.3716 71.4082 30.5083C71.4831 30.645 71.5954 30.7541 71.7451 30.8354C71.8981 30.9136 72.0853 30.9526 72.3066 30.9526C72.5833 30.9526 72.8275 30.894 73.0391 30.7769C73.2507 30.6597 73.4183 30.5164 73.542 30.3472C73.6689 30.1779 73.7373 30.0135 73.7471 29.854L74.1328 30.2886C74.11 30.4253 74.0482 30.5767 73.9473 30.7427C73.8464 30.9087 73.7113 31.0682 73.542 31.2212C73.376 31.3709 73.1774 31.4963 72.9463 31.5972C72.7184 31.6948 72.4613 31.7437 72.1748 31.7437C71.8167 31.7437 71.5026 31.6737 71.2324 31.5337C70.9655 31.3937 70.7572 31.2065 70.6074 30.9722C70.4609 30.7345 70.3877 30.4692 70.3877 30.1763C70.3877 29.8931 70.443 29.644 70.5537 29.4292C70.6644 29.2111 70.8239 29.0304 71.0322 28.8872C71.2406 28.7407 71.4912 28.63 71.7842 28.5552C72.0771 28.4803 72.4043 28.4429 72.7656 28.4429H73.8154ZM76.8916 24.146V31.646H75.9834V24.146H76.8916ZM80.1191 26.3628L77.8145 28.8286L76.5254 30.1665L76.4521 29.2046L77.375 28.1011L79.0156 26.3628H80.1191ZM79.2939 31.646L77.4092 29.1265L77.8779 28.3208L80.3584 31.646H79.2939ZM81.8721 30.5718V31.2993C81.8721 31.5955 81.7972 31.908 81.6475 32.2368C81.4977 32.5688 81.2878 32.8455 81.0176 33.0669L80.5049 32.7104C80.609 32.5672 80.6969 32.4207 80.7686 32.271C80.8402 32.1245 80.8939 31.9715 80.9297 31.812C80.9688 31.6558 80.9883 31.4897 80.9883 31.314V30.5718H81.8721ZM88.0732 24.5366V31.646H87.1455V24.5366H88.0732ZM90.3584 24.5366V25.3081H84.8652V24.5366H90.3584ZM92.1797 24.146V31.646H91.2764V24.146H92.1797ZM91.9648 28.8042L91.5889 28.7896C91.5921 28.4282 91.6458 28.0946 91.75 27.7886C91.8542 27.4793 92.0007 27.2108 92.1895 26.9829C92.3783 26.755 92.6029 26.5793 92.8633 26.4556C93.127 26.3286 93.4183 26.2651 93.7373 26.2651C93.9977 26.2651 94.2321 26.3009 94.4404 26.3726C94.6488 26.4409 94.8262 26.5516 94.9727 26.7046C95.1224 26.8576 95.2363 27.0562 95.3145 27.3003C95.3926 27.5412 95.4316 27.8358 95.4316 28.1841V31.646H94.5234V28.1743C94.5234 27.8976 94.4827 27.6763 94.4014 27.5103C94.32 27.341 94.2012 27.2189 94.0449 27.144C93.8887 27.0659 93.6966 27.0269 93.4688 27.0269C93.2441 27.0269 93.0391 27.0741 92.8535 27.1685C92.6712 27.2629 92.5133 27.3931 92.3799 27.5591C92.2497 27.7251 92.1471 27.9155 92.0723 28.1304C92.0007 28.342 91.9648 28.5666 91.9648 28.8042ZM98.9766 31.7437C98.6087 31.7437 98.2751 31.6818 97.9756 31.5581C97.6794 31.4312 97.4238 31.2537 97.209 31.0259C96.9974 30.798 96.8346 30.5278 96.7207 30.2153C96.6068 29.9028 96.5498 29.561 96.5498 29.1899V28.9849C96.5498 28.5552 96.6133 28.1727 96.7402 27.8374C96.8672 27.4989 97.0397 27.2124 97.2578 26.978C97.4759 26.7437 97.7233 26.5662 98 26.4458C98.2767 26.3254 98.5632 26.2651 98.8594 26.2651C99.237 26.2651 99.5625 26.3302 99.8359 26.4604C100.113 26.5907 100.339 26.7729 100.515 27.0073C100.69 27.2384 100.821 27.5119 100.905 27.8276C100.99 28.1401 101.032 28.4819 101.032 28.853V29.2583H97.0869V28.521H100.129V28.4526C100.116 28.2183 100.067 27.9904 99.9824 27.769C99.901 27.5477 99.7708 27.3654 99.5918 27.2222C99.4128 27.0789 99.1686 27.0073 98.8594 27.0073C98.6543 27.0073 98.4655 27.0513 98.293 27.1392C98.1204 27.2238 97.9723 27.3507 97.8486 27.52C97.7249 27.6893 97.6289 27.896 97.5605 28.1401C97.4922 28.3843 97.458 28.6659 97.458 28.9849V29.1899C97.458 29.4406 97.4922 29.6766 97.5605 29.8979C97.6322 30.116 97.7347 30.3081 97.8682 30.4741C98.0049 30.6401 98.1693 30.7703 98.3613 30.8647C98.5566 30.9591 98.778 31.0063 99.0254 31.0063C99.3444 31.0063 99.6146 30.9412 99.8359 30.811C100.057 30.6808 100.251 30.5067 100.417 30.2886L100.964 30.7231C100.85 30.8957 100.705 31.0601 100.529 31.2163C100.354 31.3726 100.137 31.4995 99.8799 31.5972C99.626 31.6948 99.3249 31.7437 98.9766 31.7437ZM106.574 29.4976L107.985 24.5366H108.669L108.273 26.4653L106.755 31.646H106.076L106.574 29.4976ZM105.114 24.5366L106.237 29.3999L106.574 31.646H105.9L104.177 24.5366H105.114ZM110.495 29.395L111.594 24.5366H112.536L110.817 31.646H110.144L110.495 29.395ZM108.771 24.5366L110.144 29.4976L110.642 31.646H109.963L108.498 26.4653L108.098 24.5366H108.771ZM113.049 29.063V28.9507C113.049 28.5698 113.104 28.2166 113.215 27.8911C113.326 27.5623 113.485 27.2775 113.693 27.0366C113.902 26.7925 114.154 26.6037 114.45 26.4702C114.746 26.3335 115.078 26.2651 115.446 26.2651C115.817 26.2651 116.151 26.3335 116.447 26.4702C116.747 26.6037 117.001 26.7925 117.209 27.0366C117.421 27.2775 117.582 27.5623 117.692 27.8911C117.803 28.2166 117.858 28.5698 117.858 28.9507V29.063C117.858 29.4438 117.803 29.797 117.692 30.1226C117.582 30.4481 117.421 30.7329 117.209 30.9771C117.001 31.2179 116.748 31.4067 116.452 31.5435C116.159 31.6769 115.827 31.7437 115.456 31.7437C115.085 31.7437 114.751 31.6769 114.455 31.5435C114.159 31.4067 113.905 31.2179 113.693 30.9771C113.485 30.7329 113.326 30.4481 113.215 30.1226C113.104 29.797 113.049 29.4438 113.049 29.063ZM113.952 28.9507V29.063C113.952 29.3267 113.983 29.5757 114.045 29.8101C114.107 30.0412 114.2 30.2463 114.323 30.4253C114.45 30.6043 114.608 30.7459 114.797 30.8501C114.986 30.951 115.205 31.0015 115.456 31.0015C115.703 31.0015 115.92 30.951 116.105 30.8501C116.294 30.7459 116.451 30.6043 116.574 30.4253C116.698 30.2463 116.791 30.0412 116.853 29.8101C116.918 29.5757 116.95 29.3267 116.95 29.063V28.9507C116.95 28.6903 116.918 28.4445 116.853 28.2134C116.791 27.979 116.696 27.7723 116.569 27.5933C116.446 27.411 116.289 27.2677 116.101 27.1636C115.915 27.0594 115.697 27.0073 115.446 27.0073C115.199 27.0073 114.981 27.0594 114.792 27.1636C114.606 27.2677 114.45 27.411 114.323 27.5933C114.2 27.7723 114.107 27.979 114.045 28.2134C113.983 28.4445 113.952 28.6903 113.952 28.9507ZM119.895 27.1929V31.646H118.991V26.3628H119.87L119.895 27.1929ZM121.545 26.3335L121.54 27.1733C121.465 27.1571 121.394 27.1473 121.325 27.144C121.26 27.1375 121.185 27.1343 121.101 27.1343C120.892 27.1343 120.708 27.1668 120.549 27.2319C120.389 27.297 120.254 27.3882 120.144 27.5054C120.033 27.6226 119.945 27.7625 119.88 27.9253C119.818 28.0848 119.777 28.2606 119.758 28.4526L119.504 28.5991C119.504 28.2801 119.535 27.9806 119.597 27.7007C119.662 27.4207 119.761 27.1733 119.895 26.9585C120.028 26.7404 120.197 26.5711 120.402 26.4507C120.611 26.327 120.858 26.2651 121.145 26.2651C121.21 26.2651 121.285 26.2733 121.369 26.2896C121.454 26.3026 121.512 26.3172 121.545 26.3335ZM123.361 24.146V31.646H122.453V24.146H123.361ZM128.142 30.6206V24.146H129.05V31.646H128.22L128.142 30.6206ZM124.587 29.063V28.9604C124.587 28.5568 124.636 28.1906 124.733 27.8618C124.834 27.5298 124.976 27.245 125.158 27.0073C125.344 26.7697 125.563 26.5874 125.817 26.4604C126.075 26.3302 126.361 26.2651 126.677 26.2651C127.009 26.2651 127.299 26.3237 127.546 26.4409C127.797 26.5549 128.008 26.7225 128.181 26.9438C128.356 27.1619 128.495 27.4256 128.596 27.7349C128.697 28.0441 128.767 28.394 128.806 28.7847V29.2339C128.77 29.6213 128.7 29.9696 128.596 30.2788C128.495 30.5881 128.356 30.8517 128.181 31.0698C128.008 31.2879 127.797 31.4556 127.546 31.5728C127.295 31.6867 127.002 31.7437 126.667 31.7437C126.358 31.7437 126.075 31.6769 125.817 31.5435C125.563 31.41 125.344 31.2228 125.158 30.9819C124.976 30.741 124.834 30.4578 124.733 30.1323C124.636 29.8035 124.587 29.4471 124.587 29.063ZM125.495 28.9604V29.063C125.495 29.3267 125.521 29.5741 125.573 29.8052C125.629 30.0363 125.713 30.2397 125.827 30.4155C125.941 30.5913 126.086 30.7297 126.262 30.8306C126.438 30.9282 126.647 30.9771 126.892 30.9771C127.191 30.9771 127.437 30.9136 127.629 30.7866C127.824 30.6597 127.98 30.492 128.098 30.2837C128.215 30.0754 128.306 29.8491 128.371 29.605V28.4282C128.332 28.2492 128.275 28.0767 128.2 27.9106C128.129 27.7414 128.034 27.5916 127.917 27.4614C127.803 27.328 127.661 27.2222 127.492 27.144C127.326 27.0659 127.129 27.0269 126.901 27.0269C126.654 27.0269 126.441 27.0789 126.262 27.1831C126.086 27.284 125.941 27.424 125.827 27.603C125.713 27.7788 125.629 27.9839 125.573 28.2183C125.521 28.4494 125.495 28.6968 125.495 28.9604ZM137.385 30.8794V31.646H133.83V30.8794H137.385ZM134.016 24.5366V31.646H133.073V24.5366H134.016ZM139.309 26.3628V31.646H138.4V26.3628H139.309ZM138.332 24.9614C138.332 24.8149 138.376 24.6912 138.464 24.5903C138.555 24.4894 138.688 24.439 138.864 24.439C139.037 24.439 139.169 24.4894 139.26 24.5903C139.354 24.6912 139.401 24.8149 139.401 24.9614C139.401 25.1014 139.354 25.2218 139.26 25.3228C139.169 25.4204 139.037 25.4692 138.864 25.4692C138.688 25.4692 138.555 25.4204 138.464 25.3228C138.376 25.2218 138.332 25.1014 138.332 24.9614ZM143.835 30.2446C143.835 30.1144 143.806 29.994 143.747 29.8833C143.692 29.7694 143.576 29.6668 143.4 29.5757C143.228 29.4813 142.967 29.3999 142.619 29.3315C142.326 29.2697 142.061 29.1965 141.823 29.1118C141.589 29.0272 141.389 28.9246 141.223 28.8042C141.06 28.6838 140.935 28.5422 140.847 28.3794C140.759 28.2166 140.715 28.0262 140.715 27.8081C140.715 27.5998 140.76 27.4028 140.852 27.2173C140.946 27.0317 141.078 26.8674 141.247 26.7241C141.42 26.5809 141.626 26.4686 141.867 26.3872C142.108 26.3058 142.377 26.2651 142.673 26.2651C143.096 26.2651 143.457 26.34 143.757 26.4897C144.056 26.6395 144.286 26.8397 144.445 27.0903C144.605 27.3377 144.685 27.6128 144.685 27.9155H143.781C143.781 27.769 143.737 27.6274 143.649 27.4907C143.565 27.3507 143.439 27.2352 143.273 27.144C143.111 27.0529 142.91 27.0073 142.673 27.0073C142.422 27.0073 142.219 27.0464 142.062 27.1245C141.91 27.1994 141.797 27.2954 141.726 27.4126C141.657 27.5298 141.623 27.6535 141.623 27.7837C141.623 27.8813 141.639 27.9692 141.672 28.0474C141.708 28.1222 141.77 28.1922 141.857 28.2573C141.945 28.3192 142.069 28.3778 142.229 28.4331C142.388 28.4884 142.591 28.5438 142.839 28.5991C143.272 28.6968 143.628 28.814 143.908 28.9507C144.188 29.0874 144.396 29.255 144.533 29.4536C144.67 29.6522 144.738 29.8931 144.738 30.1763C144.738 30.4074 144.689 30.619 144.592 30.811C144.497 31.0031 144.359 31.1691 144.177 31.3091C143.998 31.4458 143.783 31.5532 143.532 31.6313C143.285 31.7062 143.007 31.7437 142.697 31.7437C142.232 31.7437 141.838 31.6606 141.516 31.4946C141.193 31.3286 140.949 31.1138 140.783 30.8501C140.617 30.5864 140.534 30.3081 140.534 30.0151H141.442C141.455 30.2625 141.527 30.4595 141.657 30.606C141.787 30.7492 141.947 30.8517 142.136 30.9136C142.325 30.9722 142.512 31.0015 142.697 31.0015C142.945 31.0015 143.151 30.9689 143.317 30.9038C143.487 30.8387 143.615 30.7492 143.703 30.6353C143.791 30.5213 143.835 30.3911 143.835 30.2446ZM148.137 26.3628V27.0562H145.28V26.3628H148.137ZM146.247 25.0786H147.15V30.3374C147.15 30.5164 147.178 30.6515 147.233 30.7427C147.289 30.8338 147.36 30.894 147.448 30.9233C147.536 30.9526 147.631 30.9673 147.731 30.9673C147.806 30.9673 147.884 30.9608 147.966 30.9478C148.05 30.9315 148.114 30.9185 148.156 30.9087L148.161 31.646C148.09 31.6688 147.995 31.6899 147.878 31.7095C147.764 31.7323 147.626 31.7437 147.463 31.7437C147.242 31.7437 147.038 31.6997 146.853 31.6118C146.667 31.5239 146.519 31.3774 146.408 31.1724C146.301 30.964 146.247 30.6841 146.247 30.3325V25.0786ZM151.389 31.7437C151.021 31.7437 150.687 31.6818 150.388 31.5581C150.091 31.4312 149.836 31.2537 149.621 31.0259C149.41 30.798 149.247 30.5278 149.133 30.2153C149.019 29.9028 148.962 29.561 148.962 29.1899V28.9849C148.962 28.5552 149.025 28.1727 149.152 27.8374C149.279 27.4989 149.452 27.2124 149.67 26.978C149.888 26.7437 150.135 26.5662 150.412 26.4458C150.689 26.3254 150.975 26.2651 151.271 26.2651C151.649 26.2651 151.975 26.3302 152.248 26.4604C152.525 26.5907 152.751 26.7729 152.927 27.0073C153.103 27.2384 153.233 27.5119 153.317 27.8276C153.402 28.1401 153.444 28.4819 153.444 28.853V29.2583H149.499V28.521H152.541V28.4526C152.528 28.2183 152.479 27.9904 152.395 27.769C152.313 27.5477 152.183 27.3654 152.004 27.2222C151.825 27.0789 151.581 27.0073 151.271 27.0073C151.066 27.0073 150.878 27.0513 150.705 27.1392C150.533 27.2238 150.384 27.3507 150.261 27.52C150.137 27.6893 150.041 27.896 149.973 28.1401C149.904 28.3843 149.87 28.6659 149.87 28.9849V29.1899C149.87 29.4406 149.904 29.6766 149.973 29.8979C150.044 30.116 150.147 30.3081 150.28 30.4741C150.417 30.6401 150.581 30.7703 150.773 30.8647C150.969 30.9591 151.19 31.0063 151.438 31.0063C151.757 31.0063 152.027 30.9412 152.248 30.811C152.469 30.6808 152.663 30.5067 152.829 30.2886L153.376 30.7231C153.262 30.8957 153.117 31.0601 152.941 31.2163C152.766 31.3726 152.549 31.4995 152.292 31.5972C152.038 31.6948 151.737 31.7437 151.389 31.7437ZM155.402 27.4907V31.646H154.499V26.3628H155.354L155.402 27.4907ZM155.188 28.8042L154.812 28.7896C154.815 28.4282 154.868 28.0946 154.973 27.7886C155.077 27.4793 155.223 27.2108 155.412 26.9829C155.601 26.755 155.826 26.5793 156.086 26.4556C156.35 26.3286 156.641 26.2651 156.96 26.2651C157.22 26.2651 157.455 26.3009 157.663 26.3726C157.871 26.4409 158.049 26.5516 158.195 26.7046C158.345 26.8576 158.459 27.0562 158.537 27.3003C158.615 27.5412 158.654 27.8358 158.654 28.1841V31.646H157.746V28.1743C157.746 27.8976 157.705 27.6763 157.624 27.5103C157.543 27.341 157.424 27.2189 157.268 27.144C157.111 27.0659 156.919 27.0269 156.691 27.0269C156.467 27.0269 156.262 27.0741 156.076 27.1685C155.894 27.2629 155.736 27.3931 155.603 27.5591C155.472 27.7251 155.37 27.9155 155.295 28.1304C155.223 28.342 155.188 28.5666 155.188 28.8042ZM163.103 30.2446C163.103 30.1144 163.073 29.994 163.015 29.8833C162.959 29.7694 162.844 29.6668 162.668 29.5757C162.495 29.4813 162.235 29.3999 161.887 29.3315C161.594 29.2697 161.328 29.1965 161.091 29.1118C160.856 29.0272 160.656 28.9246 160.49 28.8042C160.327 28.6838 160.202 28.5422 160.114 28.3794C160.026 28.2166 159.982 28.0262 159.982 27.8081C159.982 27.5998 160.028 27.4028 160.119 27.2173C160.214 27.0317 160.345 26.8674 160.515 26.7241C160.687 26.5809 160.894 26.4686 161.135 26.3872C161.376 26.3058 161.644 26.2651 161.94 26.2651C162.364 26.2651 162.725 26.34 163.024 26.4897C163.324 26.6395 163.553 26.8397 163.713 27.0903C163.872 27.3377 163.952 27.6128 163.952 27.9155H163.049C163.049 27.769 163.005 27.6274 162.917 27.4907C162.832 27.3507 162.707 27.2352 162.541 27.144C162.378 27.0529 162.178 27.0073 161.94 27.0073C161.69 27.0073 161.486 27.0464 161.33 27.1245C161.177 27.1994 161.065 27.2954 160.993 27.4126C160.925 27.5298 160.891 27.6535 160.891 27.7837C160.891 27.8813 160.907 27.9692 160.939 28.0474C160.975 28.1222 161.037 28.1922 161.125 28.2573C161.213 28.3192 161.337 28.3778 161.496 28.4331C161.656 28.4884 161.859 28.5438 162.106 28.5991C162.539 28.6968 162.896 28.814 163.176 28.9507C163.456 29.0874 163.664 29.255 163.801 29.4536C163.938 29.6522 164.006 29.8931 164.006 30.1763C164.006 30.4074 163.957 30.619 163.859 30.811C163.765 31.0031 163.627 31.1691 163.444 31.3091C163.265 31.4458 163.05 31.5532 162.8 31.6313C162.552 31.7062 162.274 31.7437 161.965 31.7437C161.499 31.7437 161.105 31.6606 160.783 31.4946C160.461 31.3286 160.217 31.1138 160.051 30.8501C159.885 30.5864 159.802 30.3081 159.802 30.0151H160.71C160.723 30.2625 160.795 30.4595 160.925 30.606C161.055 30.7492 161.215 30.8517 161.403 30.9136C161.592 30.9722 161.779 31.0015 161.965 31.0015C162.212 31.0015 162.419 30.9689 162.585 30.9038C162.754 30.8387 162.883 30.7492 162.971 30.6353C163.059 30.5213 163.103 30.3911 163.103 30.2446Z" fill="#DDDDDD"/>
<path d="M61.209 4.84912H63.8369V13.3042C63.8369 14.2886 63.626 15.1177 63.2041 15.7915C62.7881 16.4653 62.2109 16.9722 61.4727 17.312C60.7402 17.6519 59.8965 17.8218 58.9414 17.8218C57.9863 17.8218 57.1367 17.6519 56.3926 17.312C55.6543 16.9722 55.0742 16.4653 54.6523 15.7915C54.2363 15.1177 54.0283 14.2886 54.0283 13.3042V4.84912H56.665V13.3042C56.665 13.8784 56.7559 14.3472 56.9375 14.7104C57.1191 15.0737 57.3799 15.3403 57.7197 15.5103C58.0654 15.6802 58.4727 15.7651 58.9414 15.7651C59.4219 15.7651 59.8291 15.6802 60.1631 15.5103C60.5029 15.3403 60.7607 15.0737 60.9365 14.7104C61.1182 14.3472 61.209 13.8784 61.209 13.3042V4.84912ZM68.3281 10.1665V17.646H65.7969V8.13623H68.1699L68.3281 10.1665ZM67.959 12.5571H67.2734C67.2734 11.854 67.3643 11.2212 67.5459 10.6587C67.7275 10.0903 67.9824 9.60693 68.3105 9.2085C68.6387 8.8042 69.0283 8.49658 69.4795 8.28564C69.9365 8.06885 70.4463 7.96045 71.0088 7.96045C71.4541 7.96045 71.8613 8.0249 72.2305 8.15381C72.5996 8.28271 72.916 8.48779 73.1797 8.76904C73.4492 9.05029 73.6543 9.42236 73.7949 9.88525C73.9414 10.3481 74.0146 10.9136 74.0146 11.5815V17.646H71.4658V11.5728C71.4658 11.1509 71.4072 10.8228 71.29 10.5884C71.1729 10.354 71 10.1899 70.7715 10.0962C70.5488 9.99658 70.2734 9.94678 69.9453 9.94678C69.6055 9.94678 69.3096 10.0142 69.0576 10.1489C68.8115 10.2837 68.6064 10.4712 68.4424 10.7114C68.2842 10.9458 68.1641 11.2212 68.082 11.5376C68 11.854 67.959 12.1938 67.959 12.5571ZM78.6113 8.13623V17.646H76.0713V8.13623H78.6113ZM75.9131 5.65771C75.9131 5.28857 76.042 4.98389 76.2998 4.74365C76.5576 4.50342 76.9033 4.3833 77.3369 4.3833C77.7646 4.3833 78.1074 4.50342 78.3652 4.74365C78.6289 4.98389 78.7607 5.28857 78.7607 5.65771C78.7607 6.02686 78.6289 6.33154 78.3652 6.57178C78.1074 6.81201 77.7646 6.93213 77.3369 6.93213C76.9033 6.93213 76.5576 6.81201 76.2998 6.57178C76.042 6.33154 75.9131 6.02686 75.9131 5.65771ZM86.3193 21.3022V10.0786L86.6445 8.13623H88.8682V21.3022H86.3193ZM80.3076 12.9878V12.8032C80.3076 12.0767 80.3867 11.4175 80.5449 10.8257C80.709 10.228 80.9492 9.71826 81.2656 9.29639C81.582 8.86865 81.9688 8.54053 82.4258 8.31201C82.8887 8.07764 83.4219 7.96045 84.0254 7.96045C84.6055 7.96045 85.1064 8.07764 85.5283 8.31201C85.9502 8.54639 86.3047 8.87744 86.5918 9.30518C86.8848 9.73291 87.1191 10.2368 87.2949 10.8169C87.4707 11.397 87.6055 12.0327 87.6992 12.7241V13.1284C87.6113 13.7905 87.4766 14.4058 87.2949 14.9741C87.1191 15.5425 86.8848 16.0405 86.5918 16.4683C86.3047 16.896 85.9473 17.23 85.5195 17.4702C85.0977 17.7046 84.5938 17.8218 84.0078 17.8218C83.416 17.8218 82.8887 17.7017 82.4258 17.4614C81.9688 17.2153 81.582 16.8755 81.2656 16.4419C80.9492 16.0083 80.709 15.4985 80.5449 14.9126C80.3867 14.3208 80.3076 13.6792 80.3076 12.9878ZM82.8389 12.8032V12.9878C82.8389 13.3804 82.8711 13.7495 82.9355 14.0952C83 14.4351 83.1025 14.7368 83.2432 15.0005C83.3896 15.2642 83.5771 15.4722 83.8057 15.6245C84.0342 15.771 84.3154 15.8442 84.6494 15.8442C85.1123 15.8442 85.4844 15.7446 85.7656 15.5454C86.0527 15.3403 86.2637 15.062 86.3984 14.7104C86.5391 14.3589 86.6211 13.9575 86.6445 13.5063V12.355C86.627 11.9858 86.5771 11.6548 86.4951 11.3618C86.4189 11.063 86.3018 10.8081 86.1436 10.5972C85.9912 10.3862 85.792 10.2251 85.5459 10.1138C85.3057 9.99658 85.0127 9.93799 84.667 9.93799C84.3389 9.93799 84.0576 10.0112 83.8232 10.1577C83.5889 10.3042 83.3984 10.5093 83.252 10.7729C83.1113 11.0308 83.0059 11.3325 82.9355 11.6782C82.8711 12.0239 82.8389 12.3989 82.8389 12.8032ZM96.4883 15.3696V8.13623H99.0195V17.646H96.6377L96.4883 15.3696ZM96.7695 13.4185L97.5166 13.4009C97.5166 14.0337 97.4434 14.6226 97.2969 15.1675C97.1504 15.7065 96.9307 16.1753 96.6377 16.5737C96.3447 16.9663 95.9756 17.2739 95.5303 17.4966C95.085 17.7134 94.5605 17.8218 93.957 17.8218C93.4941 17.8218 93.0664 17.7573 92.6738 17.6284C92.2871 17.4937 91.9531 17.2856 91.6719 17.0044C91.3965 16.7173 91.1797 16.3511 91.0215 15.9058C90.8691 15.4546 90.793 14.9126 90.793 14.2798V8.13623H93.3242V14.2974C93.3242 14.5786 93.3564 14.8159 93.4209 15.0093C93.4912 15.2026 93.5879 15.3608 93.7109 15.4839C93.834 15.6069 93.9775 15.6948 94.1416 15.7476C94.3115 15.8003 94.499 15.8267 94.7041 15.8267C95.2256 15.8267 95.6357 15.7212 95.9346 15.5103C96.2393 15.2993 96.4531 15.0122 96.5762 14.6489C96.7051 14.2798 96.7695 13.8696 96.7695 13.4185ZM105.33 17.8218C104.592 17.8218 103.93 17.7046 103.344 17.4702C102.758 17.23 102.26 16.8989 101.85 16.4771C101.445 16.0552 101.135 15.5659 100.918 15.0093C100.701 14.4468 100.593 13.8491 100.593 13.2163V12.8647C100.593 12.144 100.695 11.4849 100.9 10.8872C101.105 10.2896 101.398 9.771 101.779 9.33154C102.166 8.89209 102.635 8.55518 103.186 8.3208C103.736 8.08057 104.357 7.96045 105.049 7.96045C105.723 7.96045 106.32 8.07178 106.842 8.29443C107.363 8.51709 107.8 8.8335 108.151 9.24365C108.509 9.65381 108.778 10.146 108.96 10.7202C109.142 11.2886 109.232 11.9214 109.232 12.6187V13.6733H101.674V11.9858H106.745V11.7925C106.745 11.4409 106.681 11.1274 106.552 10.8521C106.429 10.5708 106.241 10.3481 105.989 10.1841C105.737 10.02 105.415 9.93799 105.022 9.93799C104.688 9.93799 104.401 10.0112 104.161 10.1577C103.921 10.3042 103.725 10.5093 103.572 10.7729C103.426 11.0366 103.314 11.3472 103.238 11.7046C103.168 12.0562 103.133 12.4429 103.133 12.8647V13.2163C103.133 13.5972 103.186 13.9487 103.291 14.271C103.402 14.5933 103.558 14.8716 103.757 15.106C103.962 15.3403 104.208 15.522 104.495 15.6509C104.788 15.7798 105.119 15.8442 105.488 15.8442C105.945 15.8442 106.37 15.7563 106.763 15.5806C107.161 15.3989 107.504 15.1265 107.791 14.7632L109.021 16.0991C108.822 16.3862 108.55 16.6616 108.204 16.9253C107.864 17.189 107.454 17.4058 106.974 17.5757C106.493 17.7397 105.945 17.8218 105.33 17.8218ZM120.324 12.0298H117.037L117.02 10.2192H119.779C120.266 10.2192 120.664 10.1577 120.975 10.0347C121.285 9.90576 121.517 9.72119 121.669 9.48096C121.827 9.23486 121.906 8.93604 121.906 8.58447C121.906 8.18604 121.83 7.86377 121.678 7.61768C121.531 7.37158 121.3 7.19287 120.983 7.08154C120.673 6.97021 120.271 6.91455 119.779 6.91455H117.951V17.646H115.314V4.84912H119.779C120.523 4.84912 121.188 4.91943 121.774 5.06006C122.366 5.20068 122.867 5.41455 123.277 5.70166C123.688 5.98877 124.001 6.35205 124.218 6.7915C124.435 7.2251 124.543 7.74072 124.543 8.33838C124.543 8.86572 124.423 9.35205 124.183 9.79736C123.948 10.2427 123.576 10.606 123.066 10.8872C122.562 11.1685 121.903 11.3237 121.089 11.353L120.324 12.0298ZM120.21 17.646H116.316L117.345 15.5894H120.21C120.673 15.5894 121.051 15.5161 121.344 15.3696C121.637 15.2173 121.854 15.0122 121.994 14.7544C122.135 14.4966 122.205 14.2007 122.205 13.8667C122.205 13.4917 122.141 13.1665 122.012 12.8911C121.889 12.6157 121.689 12.4048 121.414 12.2583C121.139 12.106 120.775 12.0298 120.324 12.0298H117.784L117.802 10.2192H120.966L121.572 10.9312C122.352 10.9194 122.979 11.0571 123.453 11.3442C123.934 11.6255 124.282 11.9917 124.499 12.4429C124.722 12.894 124.833 13.3774 124.833 13.8931C124.833 14.7134 124.654 15.4048 124.297 15.9673C123.939 16.5239 123.415 16.9429 122.724 17.2241C122.038 17.5054 121.2 17.646 120.21 17.646ZM126.248 12.9878V12.8032C126.248 12.106 126.348 11.4644 126.547 10.8784C126.746 10.2866 127.036 9.77393 127.417 9.34033C127.798 8.90674 128.267 8.56982 128.823 8.32959C129.38 8.0835 130.019 7.96045 130.739 7.96045C131.46 7.96045 132.102 8.0835 132.664 8.32959C133.227 8.56982 133.698 8.90674 134.079 9.34033C134.466 9.77393 134.759 10.2866 134.958 10.8784C135.157 11.4644 135.257 12.106 135.257 12.8032V12.9878C135.257 13.6792 135.157 14.3208 134.958 14.9126C134.759 15.4985 134.466 16.0112 134.079 16.4507C133.698 16.8843 133.229 17.2212 132.673 17.4614C132.116 17.7017 131.478 17.8218 130.757 17.8218C130.036 17.8218 129.395 17.7017 128.832 17.4614C128.275 17.2212 127.804 16.8843 127.417 16.4507C127.036 16.0112 126.746 15.4985 126.547 14.9126C126.348 14.3208 126.248 13.6792 126.248 12.9878ZM128.779 12.8032V12.9878C128.779 13.3862 128.814 13.7583 128.885 14.104C128.955 14.4497 129.066 14.7544 129.219 15.0181C129.377 15.2759 129.582 15.478 129.834 15.6245C130.086 15.771 130.394 15.8442 130.757 15.8442C131.108 15.8442 131.41 15.771 131.662 15.6245C131.914 15.478 132.116 15.2759 132.269 15.0181C132.421 14.7544 132.532 14.4497 132.603 14.104C132.679 13.7583 132.717 13.3862 132.717 12.9878V12.8032C132.717 12.4165 132.679 12.0532 132.603 11.7134C132.532 11.3677 132.418 11.063 132.26 10.7993C132.107 10.5298 131.905 10.3188 131.653 10.1665C131.401 10.0142 131.097 9.93799 130.739 9.93799C130.382 9.93799 130.077 10.0142 129.825 10.1665C129.579 10.3188 129.377 10.5298 129.219 10.7993C129.066 11.063 128.955 11.3677 128.885 11.7134C128.814 12.0532 128.779 12.4165 128.779 12.8032ZM136.408 12.9878V12.8032C136.408 12.106 136.508 11.4644 136.707 10.8784C136.906 10.2866 137.196 9.77393 137.577 9.34033C137.958 8.90674 138.427 8.56982 138.983 8.32959C139.54 8.0835 140.179 7.96045 140.899 7.96045C141.62 7.96045 142.262 8.0835 142.824 8.32959C143.387 8.56982 143.858 8.90674 144.239 9.34033C144.626 9.77393 144.919 10.2866 145.118 10.8784C145.317 11.4644 145.417 12.106 145.417 12.8032V12.9878C145.417 13.6792 145.317 14.3208 145.118 14.9126C144.919 15.4985 144.626 16.0112 144.239 16.4507C143.858 16.8843 143.39 17.2212 142.833 17.4614C142.276 17.7017 141.638 17.8218 140.917 17.8218C140.196 17.8218 139.555 17.7017 138.992 17.4614C138.436 17.2212 137.964 16.8843 137.577 16.4507C137.196 16.0112 136.906 15.4985 136.707 14.9126C136.508 14.3208 136.408 13.6792 136.408 12.9878ZM138.939 12.8032V12.9878C138.939 13.3862 138.975 13.7583 139.045 14.104C139.115 14.4497 139.227 14.7544 139.379 15.0181C139.537 15.2759 139.742 15.478 139.994 15.6245C140.246 15.771 140.554 15.8442 140.917 15.8442C141.269 15.8442 141.57 15.771 141.822 15.6245C142.074 15.478 142.276 15.2759 142.429 15.0181C142.581 14.7544 142.692 14.4497 142.763 14.104C142.839 13.7583 142.877 13.3862 142.877 12.9878V12.8032C142.877 12.4165 142.839 12.0532 142.763 11.7134C142.692 11.3677 142.578 11.063 142.42 10.7993C142.268 10.5298 142.065 10.3188 141.813 10.1665C141.562 10.0142 141.257 9.93799 140.899 9.93799C140.542 9.93799 140.237 10.0142 139.985 10.1665C139.739 10.3188 139.537 10.5298 139.379 10.7993C139.227 11.063 139.115 11.3677 139.045 11.7134C138.975 12.0532 138.939 12.4165 138.939 12.8032ZM149.504 4.13721V17.646H146.973V4.13721H149.504ZM155.498 8.13623L151.367 12.8472L149.152 15.0884L148.229 13.2603L149.987 11.0278L152.457 8.13623H155.498ZM152.87 17.646L150.058 13.2515L151.807 11.7222L155.788 17.646H152.87ZM161.729 15.0181C161.729 14.8364 161.677 14.6724 161.571 14.5259C161.466 14.3794 161.27 14.2446 160.982 14.1216C160.701 13.9927 160.294 13.8755 159.761 13.77C159.28 13.6646 158.832 13.5327 158.416 13.3745C158.006 13.2104 157.648 13.0142 157.344 12.7856C157.045 12.5571 156.811 12.2876 156.641 11.9771C156.471 11.6606 156.386 11.3003 156.386 10.896C156.386 10.4976 156.471 10.1226 156.641 9.771C156.816 9.41943 157.065 9.10889 157.388 8.83936C157.716 8.56396 158.114 8.3501 158.583 8.19775C159.058 8.03955 159.591 7.96045 160.183 7.96045C161.009 7.96045 161.718 8.09229 162.31 8.35596C162.907 8.61963 163.364 8.98291 163.681 9.4458C164.003 9.90283 164.164 10.4243 164.164 11.0103H161.633C161.633 10.7642 161.58 10.5444 161.475 10.3511C161.375 10.1519 161.217 9.99658 161 9.88525C160.789 9.76807 160.514 9.70947 160.174 9.70947C159.893 9.70947 159.649 9.75928 159.444 9.85889C159.239 9.95264 159.081 10.0815 158.97 10.2456C158.864 10.4038 158.812 10.5796 158.812 10.7729C158.812 10.9194 158.841 11.0513 158.899 11.1685C158.964 11.2798 159.066 11.3823 159.207 11.4761C159.348 11.5698 159.529 11.6577 159.752 11.7397C159.98 11.8159 160.262 11.8862 160.596 11.9507C161.281 12.0913 161.894 12.2759 162.433 12.5044C162.972 12.7271 163.399 13.0317 163.716 13.4185C164.032 13.7993 164.19 14.3003 164.19 14.9214C164.19 15.3433 164.097 15.73 163.909 16.0815C163.722 16.4331 163.452 16.7407 163.101 17.0044C162.749 17.2622 162.327 17.4644 161.835 17.6108C161.349 17.7515 160.801 17.8218 160.191 17.8218C159.307 17.8218 158.557 17.6636 157.941 17.3472C157.332 17.0308 156.869 16.6294 156.553 16.1431C156.242 15.6509 156.087 15.147 156.087 14.6313H158.486C158.498 14.9771 158.586 15.2554 158.75 15.4663C158.92 15.6772 159.134 15.8296 159.392 15.9233C159.655 16.0171 159.939 16.064 160.244 16.064C160.572 16.064 160.845 16.02 161.062 15.9321C161.278 15.8384 161.442 15.7153 161.554 15.563C161.671 15.4048 161.729 15.2231 161.729 15.0181Z" fill="white"/>
</svg>
